<?xml version="1.0" standalone="no"?>
<!DOCTYPE svg PUBLIC "-//W3C//DTD SVG 20010904//EN"
 "http://www.w3.org/TR/2001/REC-SVG-20010904/DTD/svg10.dtd">
<svg version="1.0" xmlns="http://www.w3.org/2000/svg"
 width="615.000000pt" height="464.000000pt" viewBox="0 0 615.000000 464.000000"
 preserveAspectRatio="xMidYMid meet">

<g transform="translate(0.000000,464.000000) scale(0.100000,-0.100000)"
fill="#000000" stroke="none">
<path d="M0 2320 l0 -2320 3075 0 3075 0 0 2320 0 2320 -3075 0 -3075 0 0
-2320z m2310 2138 c251 -62 445 -243 516 -484 13 -44 17 -90 15 -183 -3 -210
-34 -288 -171 -427 -41 -41 -75 -82 -76 -92 -1 -9 -5 -51 -8 -92 -14 -160 -99
-732 -122 -820 -8 -30 -17 -84 -19 -120 -2 -36 -13 -126 -25 -200 -11 -74 -25
-164 -30 -200 -5 -36 -28 -184 -50 -330 -22 -146 -50 -334 -63 -418 -25 -175
-18 -166 -137 -197 -88 -23 -156 -15 -245 29 l-72 35 -11 113 c-7 62 -19 185
-27 273 -27 291 -55 578 -70 720 -8 77 -15 176 -16 220 -1 44 -6 88 -11 97 -5
10 -15 89 -23 175 -37 392 -45 482 -54 548 -5 39 -5 77 -1 85 5 8 5 33 1 55
-4 22 -7 49 -6 60 0 19 -6 28 -49 78 -55 65 -126 191 -140 250 -3 15 -9 58
-11 95 -3 37 -7 90 -10 118 -19 169 118 406 300 519 188 117 391 148 615 93z
m-1158 -412 c1 -8 -161 -226 -247 -332 -27 -34 -68 -87 -90 -118 -22 -31 -42
-56 -46 -56 -3 0 -11 -11 -17 -25 -13 -29 -12 -33 68 -160 43 -69 60 -99 66
-117 4 -10 10 -18 15 -18 5 0 9 -4 9 -9 0 -8 53 -100 80 -141 32 -47 180 -303
180 -311 0 -5 4 -9 8 -9 7 0 25 -30 50 -82 2 -5 -55 -8 -126 -8 l-129 0 -34
62 c-19 35 -36 67 -38 73 -2 5 -30 56 -63 112 -32 56 -58 104 -58 107 0 3 -28
57 -63 119 -35 62 -72 131 -83 155 -18 39 -34 54 -34 32 0 -5 -9 -19 -20 -30
-11 -11 -43 -53 -71 -93 -29 -39 -53 -74 -55 -76 -10 -11 -25 61 -25 114 1
116 44 219 152 358 22 29 50 65 62 81 12 16 38 52 57 80 47 68 106 147 125
167 8 9 15 21 15 27 0 7 3 12 8 12 4 0 20 20 35 45 l28 44 112 3 c135 4 128 4
129 -6z m2331 -39 c8 -23 52 -157 97 -297 163 -513 212 -666 226 -705 8 -23
14 -48 14 -58 0 -9 5 -17 10 -17 6 0 10 7 10 15 0 9 17 68 39 133 21 64 53
164 71 222 18 58 54 170 80 250 39 120 118 369 149 470 8 25 8 25 144 28 158
3 140 19 157 -143 6 -60 20 -184 30 -275 11 -91 26 -235 35 -320 8 -85 22
-216 30 -290 29 -271 35 -329 35 -344 0 -13 -16 -16 -99 -16 -112 0 -111 -1
-111 95 0 28 -7 120 -15 205 -27 263 -54 549 -66 695 l-12 139 -18 -39 c-10
-22 -18 -48 -18 -57 -1 -10 -7 -32 -15 -50 -8 -18 -23 -62 -35 -98 -11 -36
-46 -144 -79 -240 -32 -96 -83 -246 -112 -334 -29 -87 -63 -189 -75 -225 l-23
-66 -103 0 -103 0 -53 155 c-30 85 -113 333 -185 550 -72 217 -135 399 -138
403 -4 5 -7 -13 -7 -40 0 -26 -8 -127 -17 -223 -9 -96 -23 -247 -31 -335 -8
-88 -22 -244 -32 -347 l-17 -188 -102 0 c-101 0 -103 0 -99 23 3 21 17 143 50
447 34 313 45 419 50 485 3 39 10 95 16 125 5 30 11 82 13 115 3 33 8 92 11
130 l7 70 138 -3 138 -3 15 -42z m-3133 -652 l0 -695 -105 0 -105 0 0 695 0
695 105 0 105 0 0 -695z m5458 618 l-3 -78 -297 -3 -298 -2 0 -530 0 -530 313
-2 312 -3 3 -82 3 -83 -421 0 -420 0 0 695 0 695 405 0 406 0 -3 -77z m-68
-583 l0 -80 -230 0 c-177 0 -230 3 -230 13 0 25 56 108 85 126 26 17 51 20
203 20 l172 1 0 -80z m-4937 -799 c41 -10 101 -31 133 -46 33 -16 62 -27 67
-27 4 1 7 -2 7 -7 0 -5 10 -13 22 -17 33 -10 150 -133 186 -195 17 -31 44 -92
59 -135 26 -75 28 -88 27 -259 0 -158 -3 -188 -22 -243 -50 -147 -137 -273
-252 -366 -45 -37 -150 -85 -220 -102 -102 -25 -387 -8 -397 23 -2 6 18 34 44
63 l49 53 119 8 c164 10 214 30 297 116 139 144 189 361 143 621 -7 41 -48
144 -67 168 -38 50 -121 125 -158 144 -98 50 -156 61 -323 61 -87 0 -162 -3
-168 -6 -5 -4 -9 -246 -9 -626 l0 -619 -105 0 -105 0 0 688 0 688 103 17 c130
22 189 26 359 21 88 -3 163 -11 211 -23z m4727 4 c26 -14 28 -17 19 -47 -14
-51 -11 -86 9 -97 25 -13 37 -3 68 54 35 67 51 83 94 96 97 29 172 -85 129
-198 -7 -19 -7 -29 0 -31 7 -2 11 -56 11 -153 l0 -149 -39 0 c-42 0 -51 13
-51 73 l0 27 -155 0 -155 0 0 45 0 45 143 0 c78 0 148 4 154 8 7 4 13 29 14
55 2 43 4 47 28 48 l26 1 -27 10 c-26 9 -28 13 -28 69 0 85 -30 78 -79 -18
-29 -58 -64 -83 -117 -83 -101 0 -150 111 -102 233 12 31 18 33 58 12z m-2120
-14 c0 -11 4 -22 9 -26 5 -3 13 -20 16 -38 4 -17 13 -45 19 -62 7 -16 18 -46
25 -65 7 -19 30 -84 52 -145 22 -60 54 -148 71 -195 16 -47 59 -166 95 -265
36 -99 78 -218 95 -265 36 -103 49 -139 76 -210 12 -30 24 -68 28 -83 l6 -28
-113 3 -114 3 -42 125 c-48 145 -38 117 -103 300 -28 80 -61 179 -74 220 -13
41 -36 107 -50 145 -15 39 -46 129 -69 201 l-43 131 -62 -181 c-64 -189 -145
-419 -157 -448 -6 -14 8 -16 142 -17 121 -2 153 -5 178 -19 28 -17 84 -102 85
-129 0 -10 -52 -13 -229 -13 l-229 0 -11 -27 c-6 -16 -15 -41 -21 -58 -5 -16
-24 -75 -43 -130 l-34 -100 -108 -3 c-123 -3 -118 -10 -75 98 12 30 24 64 27
75 4 17 29 88 53 150 10 25 86 236 189 525 121 341 191 532 197 541 3 5 52 9
110 9 96 0 104 -1 104 -19z m1483 5 c12 -32 19 -109 13 -151 -13 -81 -85 -128
-152 -100 -27 11 -34 11 -47 -3 -9 -8 -39 -17 -69 -20 -44 -3 -58 0 -81 18
-50 39 -59 71 -51 170 l7 89 91 4 c240 8 284 7 289 -7z m467 -31 l0 -45 -139
0 c-139 0 -140 0 -160 -26 -26 -33 -26 -37 2 -68 21 -24 29 -26 160 -32 l137
-7 0 -43 0 -44 -118 0 c-142 0 -209 16 -246 61 -22 26 -26 40 -26 98 0 54 4
74 21 95 36 46 71 54 227 55 l142 1 0 -45z m-715 -280 c55 -20 136 -49 180
-65 78 -28 80 -29 83 -64 4 -40 4 -40 -153 -97 -44 -16 -89 -33 -100 -38 -11
-5 -29 -12 -40 -15 -11 -2 -38 -12 -60 -20 -38 -14 -31 -15 151 -16 220 0 204
9 204 -108 0 -106 -43 -162 -123 -162 -18 0 -47 9 -65 20 -20 13 -39 17 -45
13 -7 -5 -39 -17 -72 -28 -33 -10 -64 -22 -70 -27 -19 -17 -25 -7 -25 42 0 43
3 52 23 59 12 5 45 17 72 28 41 15 51 23 53 46 l3 27 -75 0 -76 0 0 94 0 94
40 16 c40 16 40 16 40 69 l0 54 -40 13 c-40 13 -40 14 -40 63 0 42 2 49 18 44
9 -3 62 -22 117 -42z m720 -70 c11 -82 -2 -143 -35 -177 -25 -24 -36 -28 -87
-28 -52 0 -63 3 -87 29 -21 21 -29 42 -33 85 l-6 56 -73 0 -74 0 0 45 0 45
194 0 195 0 6 -55z m300 -170 c104 -35 192 -70 197 -77 4 -7 7 -26 6 -42 -3
-24 -10 -31 -43 -43 -22 -7 -49 -17 -60 -22 -11 -6 -49 -20 -85 -32 -36 -12
-69 -25 -75 -29 -5 -4 -30 -14 -55 -23 -25 -8 -53 -18 -62 -22 -16 -6 -18 -1
-18 44 0 50 1 51 40 67 40 16 40 17 40 68 0 47 -3 54 -25 64 -14 7 -32 12 -40
12 -11 0 -15 13 -15 50 0 28 2 50 4 50 2 0 88 -29 191 -65z m205 -333 c0 -36
-23 -72 -55 -83 -6 -2 -41 -24 -79 -49 l-67 -45 98 -5 98 -5 3 -42 3 -43 -89
0 c-49 0 -137 -3 -195 -7 l-107 -6 0 46 c0 50 -7 43 143 137 31 19 56 38 57
43 0 4 -47 7 -105 7 l-105 0 0 39 0 40 48 4 c26 2 116 4 200 5 l152 2 0 -38z
m2 -372 c5 -30 5 -81 2 -114 -5 -48 -12 -65 -42 -98 -43 -47 -89 -68 -151 -68
-66 0 -118 22 -160 66 l-36 38 -4 112 c-3 111 -3 112 20 117 13 2 101 4 194 3
l170 -1 7 -55z m-2800 -707 c17 -15 19 -15 37 1 27 24 48 11 25 -15 -27 -30
-94 -18 -94 16 0 19 9 19 32 -2z m-2772 -68 c0 -12 -14 -15 -65 -15 l-65 0 0
-45 0 -45 60 0 c47 0 60 -3 60 -15 0 -12 -13 -15 -61 -15 l-60 0 3 -42 3 -43
63 -3 c93 -4 77 -26 -21 -30 l-77 -3 0 136 0 135 80 0 c64 0 80 -3 80 -15z
m250 -100 c0 -94 3 -117 15 -121 10 -4 15 -20 15 -50 0 -32 -4 -44 -15 -44
-10 0 -15 10 -15 30 l0 30 -95 0 -95 0 0 -30 c0 -20 -5 -30 -15 -30 -24 0 -20
82 4 97 24 15 41 85 41 167 l0 66 80 0 80 0 0 -115z m112 9 l3 -106 71 104
c99 144 105 143 102 -23 -2 -95 -7 -134 -15 -137 -10 -3 -13 21 -13 98 0 64
-4 99 -10 95 -5 -3 -39 -49 -76 -101 -36 -51 -72 -94 -80 -94 -11 0 -14 25
-14 135 0 112 3 135 15 135 11 0 15 -21 17 -106z m278 46 l0 -60 70 0 70 0 0
60 c0 47 3 60 15 60 13 0 15 -22 15 -135 0 -113 -2 -135 -15 -135 -12 0 -15
13 -15 60 l0 60 -70 0 -70 0 0 -55 c0 -42 -3 -55 -15 -55 -13 0 -15 21 -15
130 0 109 2 130 15 130 12 0 15 -13 15 -60z m419 34 c31 -26 41 -54 20 -54 -7
0 -22 11 -35 25 -31 34 -86 34 -119 0 -20 -19 -25 -34 -25 -74 0 -59 27 -98
77 -107 27 -5 37 -1 63 25 18 17 36 31 41 31 12 0 11 -4 -3 -35 -23 -50 -92
-69 -148 -40 -41 21 -60 63 -60 131 0 50 3 59 34 90 45 45 108 48 155 8z m271
11 c0 -11 -11 -15 -40 -15 l-39 0 -3 -117 c-2 -97 -6 -118 -18 -118 -12 0 -16
21 -18 118 l-3 117 -39 0 c-29 0 -40 4 -40 15 0 12 18 15 100 15 82 0 100 -3
100 -15z m200 -5 c26 -26 26 -76 1 -92 -18 -11 -18 -12 5 -31 17 -13 24 -29
24 -51 0 -50 -26 -68 -107 -69 l-68 -2 -3 133 -3 132 66 0 c52 0 69 -4 85 -20z
m250 5 c0 -12 -14 -15 -65 -15 l-65 0 0 -45 0 -45 61 0 c81 0 77 -24 -4 -28
l-57 -3 0 -44 0 -45 66 0 c48 0 65 -3 62 -12 -3 -9 -31 -14 -81 -16 l-77 -3 0
136 0 135 80 0 c64 0 80 -3 80 -15z m90 -45 l0 -60 70 0 70 0 0 60 c0 47 3 60
15 60 13 0 15 -22 15 -136 0 -104 -3 -135 -12 -132 -8 3 -14 27 -16 61 l-3 57
-69 0 -69 0 -3 -57 c-2 -44 -7 -58 -18 -58 -12 0 -15 23 -18 133 -2 127 -2
132 18 132 18 0 20 -6 20 -60z m270 0 l0 -61 68 3 67 3 3 58 c2 42 7 57 18 57
12 0 14 -21 12 -132 -2 -82 -7 -132 -13 -131 -5 2 -11 28 -13 58 l-3 55 -69 0
-69 0 -3 -57 c-2 -34 -8 -58 -15 -61 -10 -3 -13 28 -13 132 0 114 2 136 15
136 12 0 15 -13 15 -60z m270 5 l0 -55 52 0 c67 0 98 -26 98 -82 0 -50 -32
-71 -116 -76 l-64 -4 0 136 c0 114 2 136 15 136 12 0 15 -13 15 -55z m208 -77
c-2 -94 -7 -133 -15 -136 -10 -3 -13 28 -13 132 0 115 2 136 15 136 13 0 15
-19 13 -132z m104 30 l3 -101 69 101 c46 67 76 102 88 102 17 0 18 -10 16
-132 -3 -110 -6 -133 -18 -133 -12 0 -15 18 -15 98 0 53 -3 97 -6 97 -3 0 -34
-42 -69 -92 -62 -90 -77 -108 -92 -108 -5 0 -8 61 -8 135 0 112 3 135 15 135
11 0 15 -20 17 -102z m483 90 c14 -6 28 -22 32 -35 6 -26 -11 -73 -26 -73 -6
0 1 -11 14 -25 64 -63 8 -125 -112 -125 l-43 0 0 135 0 135 55 0 c30 0 66 -5
80 -12z m403 -120 c-3 -110 -6 -133 -18 -133 -12 0 -16 21 -18 118 l-3 117
-64 0 -64 0 -3 -117 c-2 -82 -7 -118 -15 -121 -10 -3 -13 28 -13 132 l0 136
100 0 101 0 -3 -132z m222 117 c0 -12 -14 -15 -65 -15 l-65 0 0 -45 0 -45 60
0 c47 0 60 -3 60 -15 0 -12 -13 -15 -61 -15 l-60 0 3 -42 3 -43 63 -3 c46 -2
62 -7 62 -17 0 -12 -17 -15 -80 -15 l-80 0 0 135 0 135 80 0 c64 0 80 -3 80
-15z m90 -45 l0 -60 70 0 70 0 0 61 c0 52 2 60 18 57 15 -3 17 -17 17 -133 0
-109 -2 -130 -15 -130 -11 0 -16 14 -18 58 l-3 57 -69 0 -70 0 0 -60 c0 -47
-3 -60 -15 -60 -13 0 -15 22 -15 135 0 113 2 135 15 135 12 0 15 -13 15 -60z
m378 44 c26 -18 30 -75 7 -94 -14 -12 -13 -15 5 -32 25 -24 27 -79 3 -101 -50
-44 -153 -25 -153 29 0 20 17 17 40 -6 35 -35 100 -19 100 25 0 26 -33 55 -62
55 -10 0 -18 7 -18 15 0 9 9 15 23 15 50 0 66 62 22 82 -19 9 -29 8 -50 -6
-14 -9 -25 -21 -25 -26 0 -6 -7 -10 -15 -10 -21 0 -19 20 7 47 26 27 82 31
116 7z m252 1 c0 -12 -14 -15 -66 -15 l-65 0 3 -42 3 -43 58 -3 c42 -2 57 -7
57 -17 0 -12 -14 -15 -61 -15 l-60 0 3 -42 3 -43 63 -3 c46 -2 62 -7 62 -17 0
-12 -17 -15 -80 -15 l-80 0 0 135 0 135 80 0 c64 0 80 -3 80 -15z"/>
<path d="M1500 3720 c3 -27 13 -56 21 -66 12 -15 12 -16 0 -9 -34 20 4 -18 42
-43 165 -105 367 -162 579 -162 183 0 318 33 483 117 61 31 118 73 99 73 -3 0
-2 6 4 13 6 7 12 31 13 52 2 22 8 43 13 47 6 4 1 8 -11 8 -12 0 -25 -5 -28
-10 -11 -18 -198 -107 -281 -134 -74 -25 -143 -38 -258 -50 -72 -8 -250 20
-351 54 -48 16 -142 58 -209 94 l-122 64 6 -48z"/>
<path d="M1643 3284 c3 -10 11 -45 18 -77 l12 -58 91 -44 c122 -58 221 -79
368 -78 126 1 184 11 293 49 85 31 110 50 113 88 1 17 5 32 10 35 4 3 8 20 9
37 l3 32 -54 -29 c-118 -64 -325 -110 -425 -95 -20 3 -56 8 -81 11 -94 12
-242 69 -329 126 -31 21 -33 21 -28 3z"/>
<path d="M1764 2292 c2 -26 4 -54 5 -63 2 -32 153 -84 277 -95 80 -7 207 14
287 48 44 19 47 23 47 59 0 22 -1 40 -2 42 -1 1 4 12 11 25 14 27 11 27 -37 4
-77 -39 -163 -56 -272 -55 -107 1 -160 13 -273 62 l-47 20 4 -47z"/>
<path d="M4588 2463 c4 -34 23 -63 43 -63 19 0 39 35 39 66 0 33 -1 34 -43 34
l-43 0 4 -37z"/>
<path d="M4750 2477 c0 -24 27 -57 47 -57 13 0 23 24 23 56 0 21 -5 24 -35 24
-30 0 -35 -3 -35 -23z"/>
<path d="M4680 2140 c0 -24 -2 -23 40 -8 30 10 32 12 14 19 -35 14 -54 10 -54
-11z"/>
<path d="M4740 1856 c0 -28 19 -63 37 -70 22 -9 53 26 53 60 0 22 -4 24 -45
24 -32 0 -45 -4 -45 -14z"/>
<path d="M5198 2143 c6 -36 20 -53 42 -53 23 0 50 31 50 58 0 20 -5 22 -49 22
-47 0 -48 -1 -43 -27z"/>
<path d="M5630 1926 c0 -23 2 -24 35 -13 38 11 36 21 -7 31 -25 6 -28 3 -28
-18z"/>
<path d="M5588 1293 c-36 -4 -38 -6 -38 -38 0 -71 86 -126 163 -104 46 12 75
42 83 86 11 58 4 63 -88 61 -46 -1 -100 -3 -120 -5z"/>
<path d="M417 463 c-4 -43 -10 -90 -13 -105 l-6 -28 61 0 61 0 0 105 0 105
-49 0 -48 0 -6 -77z"/>
<path d="M1710 500 l0 -41 46 3 c31 2 51 9 58 21 19 29 -4 52 -58 55 l-46 3 0
-41z"/>
<path d="M1714 416 c-3 -8 -4 -29 -2 -48 3 -29 7 -33 34 -36 16 -2 42 2 57 7
34 13 37 53 5 75 -28 20 -87 21 -94 2z"/>
<path d="M2710 380 l0 -50 38 0 c46 0 82 23 82 54 0 34 -19 46 -72 46 l-48 0
0 -50z"/>
<path d="M3400 494 l0 -46 43 7 c57 9 74 26 59 60 -10 21 -18 25 -57 25 l-45
0 0 -46z"/>
<path d="M3400 379 l0 -51 52 5 c69 8 88 37 48 77 -13 13 -33 20 -60 20 l-40
0 0 -51z"/>
</g>
</svg>
